<?xml version="1.0" encoding="utf-8"?>
<svg xmlns="http://www.w3.org/2000/svg" xmlns:xlink="http://www.w3.org/1999/xlink" width="150" height="100" viewBox="0 0 600 400">
<defs>
  <clipPath id="clip630">
    <rect x="0" y="0" width="600" height="400"/>
  </clipPath>
</defs>
<path clip-path="url(#clip630)" d="
M0 400 L600 400 L600 0 L0 0  Z
  " fill="#ffffff" fill-rule="evenodd" fill-opacity="1"/>
<defs>
  <clipPath id="clip631">
    <rect x="120" y="0" width="421" height="400"/>
  </clipPath>
</defs>
<path clip-path="url(#clip630)" d="
M50.4226 371.612 L588.189 371.612 L588.189 30.868 L50.4226 30.868  Z
  " fill="#ffffff" fill-rule="evenodd" fill-opacity="1"/>
<defs>
  <clipPath id="clip632">
    <rect x="50" y="30" width="539" height="342"/>
  </clipPath>
</defs>
<polyline clip-path="url(#clip632)" style="stroke:#000000; stroke-width:0.5; stroke-opacity:0.1; fill:none" points="
  61.1127,371.612 61.1127,30.868 
  "/>
<polyline clip-path="url(#clip632)" style="stroke:#000000; stroke-width:0.5; stroke-opacity:0.1; fill:none" points="
  174.355,371.612 174.355,30.868 
  "/>
<polyline clip-path="url(#clip632)" style="stroke:#000000; stroke-width:0.5; stroke-opacity:0.1; fill:none" points="
  287.598,371.612 287.598,30.868 
  "/>
<polyline clip-path="url(#clip632)" style="stroke:#000000; stroke-width:0.5; stroke-opacity:0.1; fill:none" points="
  400.84,371.612 400.84,30.868 
  "/>
<polyline clip-path="url(#clip632)" style="stroke:#000000; stroke-width:0.5; stroke-opacity:0.1; fill:none" points="
  514.083,371.612 514.083,30.868 
  "/>
<polyline clip-path="url(#clip630)" style="stroke:#000000; stroke-width:1; stroke-opacity:1; fill:none" points="
  50.4226,371.612 588.189,371.612 
  "/>
<polyline clip-path="url(#clip630)" style="stroke:#000000; stroke-width:1; stroke-opacity:1; fill:none" points="
  61.1127,371.612 61.1127,367.523 
  "/>
<polyline clip-path="url(#clip630)" style="stroke:#000000; stroke-width:1; stroke-opacity:1; fill:none" points="
  174.355,371.612 174.355,367.523 
  "/>
<polyline clip-path="url(#clip630)" style="stroke:#000000; stroke-width:1; stroke-opacity:1; fill:none" points="
  287.598,371.612 287.598,367.523 
  "/>
<polyline clip-path="url(#clip630)" style="stroke:#000000; stroke-width:1; stroke-opacity:1; fill:none" points="
  400.84,371.612 400.84,367.523 
  "/>
<polyline clip-path="url(#clip630)" style="stroke:#000000; stroke-width:1; stroke-opacity:1; fill:none" points="
  514.083,371.612 514.083,367.523 
  "/>
<path clip-path="url(#clip630)" d="M 0 0 M61.1127 378.91 Q60.21 378.91 59.7528 379.801 Q59.3014 380.686 59.3014 382.469 Q59.3014 384.245 59.7528 385.136 Q60.21 386.022 61.1127 386.022 Q62.0213 386.022 62.4727 385.136 Q62.9299 384.245 62.9299 382.469 Q62.9299 380.686 62.4727 379.801 Q62.0213 378.91 61.1127 378.91 M61.1127 377.984 Q62.5653 377.984 63.3292 379.135 Q64.0988 380.281 64.0988 382.469 Q64.0988 384.65 63.3292 385.802 Q62.5653 386.948 61.1127 386.948 Q59.6602 386.948 58.8905 385.802 Q58.1267 384.65 58.1267 382.469 Q58.1267 380.281 58.8905 379.135 Q59.6602 377.984 61.1127 377.984 Z" fill="#000000" fill-rule="evenodd" fill-opacity="1" /><path clip-path="url(#clip630)" d="M 0 0 M169.766 385.796 L173.846 385.796 L173.846 386.78 L168.36 386.78 L168.36 385.796 Q169.025 385.108 170.171 383.95 Q171.323 382.787 171.618 382.451 Q172.179 381.821 172.399 381.386 Q172.625 380.947 172.625 380.524 Q172.625 379.836 172.139 379.402 Q171.659 378.968 170.883 378.968 Q170.333 378.968 169.72 379.158 Q169.112 379.349 168.418 379.737 L168.418 378.557 Q169.124 378.273 169.737 378.128 Q170.351 377.984 170.86 377.984 Q172.203 377.984 173.001 378.655 Q173.8 379.326 173.8 380.449 Q173.8 380.981 173.597 381.462 Q173.4 381.936 172.874 382.584 Q172.729 382.752 171.954 383.557 Q171.178 384.355 169.766 385.796 Z" fill="#000000" fill-rule="evenodd" fill-opacity="1" /><path clip-path="url(#clip630)" d="M 0 0 M175.125 378.14 L179.714 378.14 L179.714 379.124 L176.196 379.124 L176.196 381.242 Q176.45 381.155 176.705 381.114 Q176.959 381.068 177.214 381.068 Q178.661 381.068 179.506 381.861 Q180.351 382.654 180.351 384.008 Q180.351 385.403 179.483 386.178 Q178.615 386.948 177.035 386.948 Q176.491 386.948 175.924 386.855 Q175.362 386.763 174.76 386.577 L174.76 385.403 Q175.281 385.686 175.837 385.825 Q176.392 385.964 177.012 385.964 Q178.013 385.964 178.597 385.437 Q179.182 384.911 179.182 384.008 Q179.182 383.105 178.597 382.579 Q178.013 382.052 177.012 382.052 Q176.543 382.052 176.074 382.156 Q175.611 382.26 175.125 382.48 L175.125 378.14 Z" fill="#000000" fill-rule="evenodd" fill-opacity="1" /><path clip-path="url(#clip630)" d="M 0 0 M281.791 378.14 L286.38 378.14 L286.38 379.124 L282.861 379.124 L282.861 381.242 Q283.116 381.155 283.37 381.114 Q283.625 381.068 283.88 381.068 Q285.326 381.068 286.171 381.861 Q287.016 382.654 287.016 384.008 Q287.016 385.403 286.148 386.178 Q285.28 386.948 283.7 386.948 Q283.156 386.948 282.589 386.855 Q282.028 386.763 281.426 386.577 L281.426 385.403 Q281.947 385.686 282.502 385.825 Q283.058 385.964 283.677 385.964 Q284.678 385.964 285.263 385.437 Q285.847 384.911 285.847 384.008 Q285.847 383.105 285.263 382.579 Q284.678 382.052 283.677 382.052 Q283.208 382.052 282.74 382.156 Q282.277 382.26 281.791 382.48 L281.791 378.14 Z" fill="#000000" fill-rule="evenodd" fill-opacity="1" /><path clip-path="url(#clip630)" d="M 0 0 M290.784 378.91 Q289.881 378.91 289.424 379.801 Q288.972 380.686 288.972 382.469 Q288.972 384.245 289.424 385.136 Q289.881 386.022 290.784 386.022 Q291.692 386.022 292.144 385.136 Q292.601 384.245 292.601 382.469 Q292.601 380.686 292.144 379.801 Q291.692 378.91 290.784 378.91 M290.784 377.984 Q292.236 377.984 293 379.135 Q293.77 380.281 293.77 382.469 Q293.77 384.65 293 385.802 Q292.236 386.948 290.784 386.948 Q289.331 386.948 288.561 385.802 Q287.798 384.65 287.798 382.469 Q287.798 380.281 288.561 379.135 Q289.331 377.984 290.784 377.984 Z" fill="#000000" fill-rule="evenodd" fill-opacity="1" /><path clip-path="url(#clip630)" d="M 0 0 M394.81 378.14 L400.366 378.14 L400.366 378.638 L397.229 386.78 L396.008 386.78 L398.96 379.124 L394.81 379.124 L394.81 378.14 Z" fill="#000000" fill-rule="evenodd" fill-opacity="1" /><path clip-path="url(#clip630)" d="M 0 0 M401.645 378.14 L406.234 378.14 L406.234 379.124 L402.715 379.124 L402.715 381.242 Q402.97 381.155 403.225 381.114 Q403.479 381.068 403.734 381.068 Q405.181 381.068 406.026 381.861 Q406.871 382.654 406.871 384.008 Q406.871 385.403 406.002 386.178 Q405.134 386.948 403.555 386.948 Q403.011 386.948 402.443 386.855 Q401.882 386.763 401.28 386.577 L401.28 385.403 Q401.801 385.686 402.357 385.825 Q402.912 385.964 403.531 385.964 Q404.533 385.964 405.117 385.437 Q405.702 384.911 405.702 384.008 Q405.702 383.105 405.117 382.579 Q404.533 382.052 403.531 382.052 Q403.063 382.052 402.594 382.156 Q402.131 382.26 401.645 382.48 L401.645 378.14 Z" fill="#000000" fill-rule="evenodd" fill-opacity="1" /><path clip-path="url(#clip630)" d="M 0 0 M504.925 385.796 L506.835 385.796 L506.835 379.205 L504.757 379.621 L504.757 378.557 L506.823 378.14 L507.992 378.14 L507.992 385.796 L509.902 385.796 L509.902 386.78 L504.925 386.78 L504.925 385.796 Z" fill="#000000" fill-rule="evenodd" fill-opacity="1" /><path clip-path="url(#clip630)" d="M 0 0 M513.669 378.91 Q512.766 378.91 512.309 379.801 Q511.858 380.686 511.858 382.469 Q511.858 384.245 512.309 385.136 Q512.766 386.022 513.669 386.022 Q514.578 386.022 515.029 385.136 Q515.486 384.245 515.486 382.469 Q515.486 380.686 515.029 379.801 Q514.578 378.91 513.669 378.91 M513.669 377.984 Q515.122 377.984 515.886 379.135 Q516.655 380.281 516.655 382.469 Q516.655 384.65 515.886 385.802 Q515.122 386.948 513.669 386.948 Q512.217 386.948 511.447 385.802 Q510.683 384.65 510.683 382.469 Q510.683 380.281 511.447 379.135 Q512.217 377.984 513.669 377.984 Z" fill="#000000" fill-rule="evenodd" fill-opacity="1" /><path clip-path="url(#clip630)" d="M 0 0 M520.423 378.91 Q519.52 378.91 519.063 379.801 Q518.611 380.686 518.611 382.469 Q518.611 384.245 519.063 385.136 Q519.52 386.022 520.423 386.022 Q521.331 386.022 521.783 385.136 Q522.24 384.245 522.24 382.469 Q522.24 380.686 521.783 379.801 Q521.331 378.91 520.423 378.91 M520.423 377.984 Q521.875 377.984 522.639 379.135 Q523.409 380.281 523.409 382.469 Q523.409 384.65 522.639 385.802 Q521.875 386.948 520.423 386.948 Q518.97 386.948 518.2 385.802 Q517.437 384.65 517.437 382.469 Q517.437 380.281 518.2 379.135 Q518.97 377.984 520.423 377.984 Z" fill="#000000" fill-rule="evenodd" fill-opacity="1" /><polyline clip-path="url(#clip632)" style="stroke:#000000; stroke-width:0.5; stroke-opacity:0.1; fill:none" points="
  50.4226,303.797 588.189,303.797 
  "/>
<polyline clip-path="url(#clip632)" style="stroke:#000000; stroke-width:0.5; stroke-opacity:0.1; fill:none" points="
  50.4226,228.053 588.189,228.053 
  "/>
<polyline clip-path="url(#clip632)" style="stroke:#000000; stroke-width:0.5; stroke-opacity:0.1; fill:none" points="
  50.4226,152.31 588.189,152.31 
  "/>
<polyline clip-path="url(#clip632)" style="stroke:#000000; stroke-width:0.5; stroke-opacity:0.1; fill:none" points="
  50.4226,76.5658 588.189,76.5658 
  "/>
<polyline clip-path="url(#clip630)" style="stroke:#000000; stroke-width:1; stroke-opacity:1; fill:none" points="
  50.4226,371.612 50.4226,30.868 
  "/>
<polyline clip-path="url(#clip630)" style="stroke:#000000; stroke-width:1; stroke-opacity:1; fill:none" points="
  50.4226,303.797 56.8758,303.797 
  "/>
<polyline clip-path="url(#clip630)" style="stroke:#000000; stroke-width:1; stroke-opacity:1; fill:none" points="
  50.4226,228.053 56.8758,228.053 
  "/>
<polyline clip-path="url(#clip630)" style="stroke:#000000; stroke-width:1; stroke-opacity:1; fill:none" points="
  50.4226,152.31 56.8758,152.31 
  "/>
<polyline clip-path="url(#clip630)" style="stroke:#000000; stroke-width:1; stroke-opacity:1; fill:none" points="
  50.4226,76.5658 56.8758,76.5658 
  "/>
<path clip-path="url(#clip630)" d="M 0 0 M15.7341 300.247 Q14.8314 300.247 14.3742 301.138 Q13.9228 302.023 13.9228 303.806 Q13.9228 305.582 14.3742 306.474 Q14.8314 307.359 15.7341 307.359 Q16.6427 307.359 17.0941 306.474 Q17.5512 305.582 17.5512 303.806 Q17.5512 302.023 17.0941 301.138 Q16.6427 300.247 15.7341 300.247 M15.7341 299.321 Q17.1867 299.321 17.9505 300.472 Q18.7202 301.618 18.7202 303.806 Q18.7202 305.987 17.9505 307.139 Q17.1867 308.285 15.7341 308.285 Q14.2816 308.285 13.5119 307.139 Q12.748 305.987 12.748 303.806 Q12.748 301.618 13.5119 300.472 Q14.2816 299.321 15.7341 299.321 Z" fill="#000000" fill-rule="evenodd" fill-opacity="1" /><path clip-path="url(#clip630)" d="M 0 0 M19.9876 306.647 L21.2086 306.647 L21.2086 308.117 L19.9876 308.117 L19.9876 306.647 Z" fill="#000000" fill-rule="evenodd" fill-opacity="1" /><path clip-path="url(#clip630)" d="M 0 0 M22.5107 307.938 L22.5107 306.873 Q22.9505 307.081 23.4019 307.191 Q23.8533 307.301 24.2873 307.301 Q25.4447 307.301 26.0524 306.526 Q26.6658 305.744 26.7526 304.159 Q26.4169 304.656 25.9019 304.923 Q25.3869 305.189 24.7619 305.189 Q23.4656 305.189 22.7075 304.408 Q21.9552 303.621 21.9552 302.261 Q21.9552 300.93 22.7422 300.125 Q23.5292 299.321 24.8371 299.321 Q26.3359 299.321 27.123 300.472 Q27.9158 301.618 27.9158 303.806 Q27.9158 305.849 26.9436 307.07 Q25.9771 308.285 24.3394 308.285 Q23.8996 308.285 23.4482 308.198 Q22.9968 308.111 22.5107 307.938 M24.8371 304.274 Q25.6241 304.274 26.0813 303.736 Q26.5443 303.198 26.5443 302.261 Q26.5443 301.329 26.0813 300.791 Q25.6241 300.247 24.8371 300.247 Q24.0501 300.247 23.5871 300.791 Q23.1299 301.329 23.1299 302.261 Q23.1299 303.198 23.5871 303.736 Q24.0501 304.274 24.8371 304.274 Z" fill="#000000" fill-rule="evenodd" fill-opacity="1" /><path clip-path="url(#clip630)" d="M 0 0 M31.6831 300.247 Q30.7803 300.247 30.3232 301.138 Q29.8718 302.023 29.8718 303.806 Q29.8718 305.582 30.3232 306.474 Q30.7803 307.359 31.6831 307.359 Q32.5917 307.359 33.0431 306.474 Q33.5002 305.582 33.5002 303.806 Q33.5002 302.023 33.0431 301.138 Q32.5917 300.247 31.6831 300.247 M31.6831 299.321 Q33.1357 299.321 33.8995 300.472 Q34.6692 301.618 34.6692 303.806 Q34.6692 305.987 33.8995 307.139 Q33.1357 308.285 31.6831 308.285 Q30.2306 308.285 29.4609 307.139 Q28.697 305.987 28.697 303.806 Q28.697 301.618 29.4609 300.472 Q30.2306 299.321 31.6831 299.321 Z" fill="#000000" fill-rule="evenodd" fill-opacity="1" /><path clip-path="url(#clip630)" d="M 0 0 M38.4366 300.247 Q37.5338 300.247 37.0766 301.138 Q36.6252 302.023 36.6252 303.806 Q36.6252 305.582 37.0766 306.474 Q37.5338 307.359 38.4366 307.359 Q39.3451 307.359 39.7965 306.474 Q40.2537 305.582 40.2537 303.806 Q40.2537 302.023 39.7965 301.138 Q39.3451 300.247 38.4366 300.247 M38.4366 299.321 Q39.8891 299.321 40.653 300.472 Q41.4226 301.618 41.4226 303.806 Q41.4226 305.987 40.653 307.139 Q39.8891 308.285 38.4366 308.285 Q36.984 308.285 36.2143 307.139 Q35.4505 305.987 35.4505 303.806 Q35.4505 301.618 36.2143 300.472 Q36.984 299.321 38.4366 299.321 Z" fill="#000000" fill-rule="evenodd" fill-opacity="1" /><path clip-path="url(#clip630)" d="M 0 0 M16.3823 224.503 Q15.4795 224.503 15.0223 225.394 Q14.5709 226.28 14.5709 228.062 Q14.5709 229.839 15.0223 230.73 Q15.4795 231.615 16.3823 231.615 Q17.2908 231.615 17.7422 230.73 Q18.1994 229.839 18.1994 228.062 Q18.1994 226.28 17.7422 225.394 Q17.2908 224.503 16.3823 224.503 M16.3823 223.577 Q17.8348 223.577 18.5987 224.729 Q19.3684 225.874 19.3684 228.062 Q19.3684 230.244 18.5987 231.395 Q17.8348 232.541 16.3823 232.541 Q14.9297 232.541 14.1601 231.395 Q13.3962 230.244 13.3962 228.062 Q13.3962 225.874 14.1601 224.729 Q14.9297 223.577 16.3823 223.577 Z" fill="#000000" fill-rule="evenodd" fill-opacity="1" /><path clip-path="url(#clip630)" d="M 0 0 M20.6357 230.903 L21.8568 230.903 L21.8568 232.373 L20.6357 232.373 L20.6357 230.903 Z" fill="#000000" fill-rule="evenodd" fill-opacity="1" /><path clip-path="url(#clip630)" d="M 0 0 M23.1589 232.194 L23.1589 231.129 Q23.5987 231.337 24.0501 231.447 Q24.5014 231.557 24.9355 231.557 Q26.0929 231.557 26.7005 230.782 Q27.3139 230.001 27.4007 228.415 Q27.0651 228.913 26.55 229.179 Q26.035 229.445 25.41 229.445 Q24.1137 229.445 23.3556 228.664 Q22.6033 227.877 22.6033 226.517 Q22.6033 225.186 23.3903 224.381 Q24.1774 223.577 25.4852 223.577 Q26.9841 223.577 27.7711 224.729 Q28.5639 225.874 28.5639 228.062 Q28.5639 230.105 27.5917 231.326 Q26.6253 232.541 24.9875 232.541 Q24.5477 232.541 24.0964 232.454 Q23.645 232.368 23.1589 232.194 M25.4852 228.531 Q26.2723 228.531 26.7294 227.993 Q27.1924 227.454 27.1924 226.517 Q27.1924 225.585 26.7294 225.047 Q26.2723 224.503 25.4852 224.503 Q24.6982 224.503 24.2352 225.047 Q23.7781 225.585 23.7781 226.517 Q23.7781 227.454 24.2352 227.993 Q24.6982 228.531 25.4852 228.531 Z" fill="#000000" fill-rule="evenodd" fill-opacity="1" /><path clip-path="url(#clip630)" d="M 0 0 M30.8382 231.39 L34.9181 231.39 L34.9181 232.373 L29.432 232.373 L29.432 231.39 Q30.0975 230.701 31.2433 229.543 Q32.3949 228.38 32.6901 228.045 Q33.2514 227.414 33.4713 226.98 Q33.697 226.54 33.697 226.118 Q33.697 225.429 33.2109 224.995 Q32.7306 224.561 31.9551 224.561 Q31.4053 224.561 30.7919 224.752 Q30.1843 224.943 29.4898 225.331 L29.4898 224.15 Q30.1959 223.866 30.8093 223.722 Q31.4227 223.577 31.932 223.577 Q33.2745 223.577 34.0731 224.248 Q34.8718 224.92 34.8718 226.042 Q34.8718 226.575 34.6692 227.055 Q34.4725 227.53 33.9458 228.178 Q33.8012 228.346 33.0257 229.15 Q32.2502 229.949 30.8382 231.39 Z" fill="#000000" fill-rule="evenodd" fill-opacity="1" /><path clip-path="url(#clip630)" d="M 0 0 M36.197 223.733 L40.7861 223.733 L40.7861 224.717 L37.2676 224.717 L37.2676 226.835 Q37.5222 226.748 37.7768 226.708 Q38.0315 226.662 38.2861 226.662 Q39.7328 226.662 40.5777 227.454 Q41.4226 228.247 41.4226 229.601 Q41.4226 230.996 40.5546 231.771 Q39.6865 232.541 38.1067 232.541 Q37.5627 232.541 36.9956 232.449 Q36.4342 232.356 35.8324 232.171 L35.8324 230.996 Q36.3532 231.28 36.9088 231.418 Q37.4643 231.557 38.0835 231.557 Q39.0847 231.557 39.6692 231.031 Q40.2537 230.504 40.2537 229.601 Q40.2537 228.699 39.6692 228.172 Q39.0847 227.645 38.0835 227.645 Q37.6148 227.645 37.146 227.749 Q36.6831 227.854 36.197 228.074 L36.197 223.733 Z" fill="#000000" fill-rule="evenodd" fill-opacity="1" /><path clip-path="url(#clip630)" d="M 0 0 M15.983 148.759 Q15.0802 148.759 14.623 149.65 Q14.1716 150.536 14.1716 152.318 Q14.1716 154.095 14.623 154.986 Q15.0802 155.871 15.983 155.871 Q16.8915 155.871 17.3429 154.986 Q17.8001 154.095 17.8001 152.318 Q17.8001 150.536 17.3429 149.65 Q16.8915 148.759 15.983 148.759 M15.983 147.833 Q17.4355 147.833 18.1994 148.985 Q18.9691 150.131 18.9691 152.318 Q18.9691 154.5 18.1994 155.652 Q17.4355 156.797 15.983 156.797 Q14.5304 156.797 13.7608 155.652 Q12.9969 154.5 12.9969 152.318 Q12.9969 150.131 13.7608 148.985 Q14.5304 147.833 15.983 147.833 Z" fill="#000000" fill-rule="evenodd" fill-opacity="1" /><path clip-path="url(#clip630)" d="M 0 0 M20.2364 155.16 L21.4575 155.16 L21.4575 156.63 L20.2364 156.63 L20.2364 155.16 Z" fill="#000000" fill-rule="evenodd" fill-opacity="1" /><path clip-path="url(#clip630)" d="M 0 0 M22.7596 156.45 L22.7596 155.385 Q23.1994 155.594 23.6508 155.704 Q24.1021 155.814 24.5362 155.814 Q25.6936 155.814 26.3012 155.038 Q26.9146 154.257 27.0014 152.671 Q26.6658 153.169 26.1507 153.435 Q25.6357 153.701 25.0107 153.701 Q23.7144 153.701 22.9563 152.92 Q22.204 152.133 22.204 150.773 Q22.204 149.442 22.991 148.638 Q23.7781 147.833 25.0859 147.833 Q26.5848 147.833 27.3718 148.985 Q28.1646 150.131 28.1646 152.318 Q28.1646 154.361 27.1924 155.582 Q26.226 156.797 24.5882 156.797 Q24.1484 156.797 23.697 156.711 Q23.2457 156.624 22.7596 156.45 M25.0859 152.787 Q25.873 152.787 26.3301 152.249 Q26.7931 151.711 26.7931 150.773 Q26.7931 149.841 26.3301 149.303 Q25.873 148.759 25.0859 148.759 Q24.2989 148.759 23.8359 149.303 Q23.3788 149.841 23.3788 150.773 Q23.3788 151.711 23.8359 152.249 Q24.2989 152.787 25.0859 152.787 Z" fill="#000000" fill-rule="evenodd" fill-opacity="1" /><path clip-path="url(#clip630)" d="M 0 0 M29.4435 147.99 L34.0326 147.99 L34.0326 148.973 L30.5141 148.973 L30.5141 151.091 Q30.7688 151.005 31.0234 150.964 Q31.278 150.918 31.5327 150.918 Q32.9794 150.918 33.8243 151.711 Q34.6692 152.503 34.6692 153.858 Q34.6692 155.252 33.8012 156.028 Q32.9331 156.797 31.3533 156.797 Q30.8093 156.797 30.2422 156.705 Q29.6808 156.612 29.079 156.427 L29.079 155.252 Q29.5998 155.536 30.1553 155.675 Q30.7109 155.814 31.3301 155.814 Q32.3313 155.814 32.9157 155.287 Q33.5002 154.76 33.5002 153.858 Q33.5002 152.955 32.9157 152.428 Q32.3313 151.902 31.3301 151.902 Q30.8614 151.902 30.3926 152.006 Q29.9297 152.11 29.4435 152.33 L29.4435 147.99 Z" fill="#000000" fill-rule="evenodd" fill-opacity="1" /><path clip-path="url(#clip630)" d="M 0 0 M38.4366 148.759 Q37.5338 148.759 37.0766 149.65 Q36.6252 150.536 36.6252 152.318 Q36.6252 154.095 37.0766 154.986 Q37.5338 155.871 38.4366 155.871 Q39.3451 155.871 39.7965 154.986 Q40.2537 154.095 40.2537 152.318 Q40.2537 150.536 39.7965 149.65 Q39.3451 148.759 38.4366 148.759 M38.4366 147.833 Q39.8891 147.833 40.653 148.985 Q41.4226 150.131 41.4226 152.318 Q41.4226 154.5 40.653 155.652 Q39.8891 156.797 38.4366 156.797 Q36.984 156.797 36.2143 155.652 Q35.4505 154.5 35.4505 152.318 Q35.4505 150.131 36.2143 148.985 Q36.984 147.833 38.4366 147.833 Z" fill="#000000" fill-rule="evenodd" fill-opacity="1" /><path clip-path="url(#clip630)" d="M 0 0 M16.2087 73.0154 Q15.3059 73.0154 14.8487 73.9066 Q14.3973 74.792 14.3973 76.5744 Q14.3973 78.3511 14.8487 79.2423 Q15.3059 80.1277 16.2087 80.1277 Q17.1172 80.1277 17.5686 79.2423 Q18.0258 78.3511 18.0258 76.5744 Q18.0258 74.792 17.5686 73.9066 Q17.1172 73.0154 16.2087 73.0154 M16.2087 72.0895 Q17.6612 72.0895 18.4251 73.2411 Q19.1948 74.387 19.1948 76.5744 Q19.1948 78.7561 18.4251 79.9078 Q17.6612 81.0536 16.2087 81.0536 Q14.7561 81.0536 13.9865 79.9078 Q13.2226 78.7561 13.2226 76.5744 Q13.2226 74.387 13.9865 73.2411 Q14.7561 72.0895 16.2087 72.0895 Z" fill="#000000" fill-rule="evenodd" fill-opacity="1" /><path clip-path="url(#clip630)" d="M 0 0 M20.4621 79.4159 L21.6832 79.4159 L21.6832 80.8858 L20.4621 80.8858 L20.4621 79.4159 Z" fill="#000000" fill-rule="evenodd" fill-opacity="1" /><path clip-path="url(#clip630)" d="M 0 0 M22.9852 80.7064 L22.9852 79.6416 Q23.4251 79.8499 23.8764 79.9598 Q24.3278 80.0698 24.7619 80.0698 Q25.9193 80.0698 26.5269 79.2943 Q27.1403 78.5131 27.2271 76.9274 Q26.8915 77.4251 26.3764 77.6913 Q25.8614 77.9575 25.2364 77.9575 Q23.9401 77.9575 23.182 77.1763 Q22.4297 76.3893 22.4297 75.0293 Q22.4297 73.6983 23.2167 72.8939 Q24.0038 72.0895 25.3116 72.0895 Q26.8105 72.0895 27.5975 73.2411 Q28.3903 74.387 28.3903 76.5744 Q28.3903 78.6173 27.4181 79.8383 Q26.4517 81.0536 24.8139 81.0536 Q24.3741 81.0536 23.9227 80.9668 Q23.4714 80.88 22.9852 80.7064 M25.3116 77.0432 Q26.0987 77.0432 26.5558 76.505 Q27.0188 75.9668 27.0188 75.0293 Q27.0188 74.0976 26.5558 73.5594 Q26.0987 73.0154 25.3116 73.0154 Q24.5246 73.0154 24.0616 73.5594 Q23.6045 74.0976 23.6045 75.0293 Q23.6045 75.9668 24.0616 76.505 Q24.5246 77.0432 25.3116 77.0432 Z" fill="#000000" fill-rule="evenodd" fill-opacity="1" /><path clip-path="url(#clip630)" d="M 0 0 M29.3625 72.2458 L34.9181 72.2458 L34.9181 72.7434 L31.7815 80.8858 L30.5604 80.8858 L33.5118 73.2296 L29.3625 73.2296 L29.3625 72.2458 Z" fill="#000000" fill-rule="evenodd" fill-opacity="1" /><path clip-path="url(#clip630)" d="M 0 0 M36.197 72.2458 L40.7861 72.2458 L40.7861 73.2296 L37.2676 73.2296 L37.2676 75.3476 Q37.5222 75.2608 37.7768 75.2203 Q38.0315 75.174 38.2861 75.174 Q39.7328 75.174 40.5777 75.9668 Q41.4226 76.7596 41.4226 78.1138 Q41.4226 79.5085 40.5546 80.2839 Q39.6865 81.0536 38.1067 81.0536 Q37.5627 81.0536 36.9956 80.961 Q36.4342 80.8684 35.8324 80.6832 L35.8324 79.5085 Q36.3532 79.792 36.9088 79.9309 Q37.4643 80.0698 38.0835 80.0698 Q39.0847 80.0698 39.6692 79.5432 Q40.2537 79.0166 40.2537 78.1138 Q40.2537 77.211 39.6692 76.6844 Q39.0847 76.1578 38.0835 76.1578 Q37.6148 76.1578 37.146 76.2619 Q36.6831 76.3661 36.197 76.586 L36.197 72.2458 Z" fill="#000000" fill-rule="evenodd" fill-opacity="1" /><path clip-path="url(#clip630)" d="M 0 0 M236.369 5.03932 L233.594 12.5639 L239.154 12.5639 L236.369 5.03932 M235.214 3.024 L237.533 3.024 L243.296 18.144 L241.169 18.144 L239.792 14.2653 L232.976 14.2653 L231.599 18.144 L229.442 18.144 L235.214 3.024 Z" fill="#000000" fill-rule="evenodd" fill-opacity="1" /><path clip-path="url(#clip630)" d="M 0 0 M253.048 7.23694 L253.048 8.97883 Q252.258 8.54336 251.458 8.33068 Q250.668 8.10788 249.858 8.10788 Q248.045 8.10788 247.043 9.26239 Q246.04 10.4068 246.04 12.4829 Q246.04 14.5589 247.043 15.7135 Q248.045 16.8578 249.858 16.8578 Q250.668 16.8578 251.458 16.6452 Q252.258 16.4224 253.048 15.9869 L253.048 17.7085 Q252.268 18.0731 251.428 18.2554 Q250.597 18.4377 249.656 18.4377 Q247.093 18.4377 245.584 16.8275 Q244.075 15.2172 244.075 12.4829 Q244.075 9.70799 245.595 8.11801 Q247.124 6.52803 249.777 6.52803 Q250.638 6.52803 251.458 6.71032 Q252.279 6.88249 253.048 7.23694 Z" fill="#000000" fill-rule="evenodd" fill-opacity="1" /><path clip-path="url(#clip630)" d="M 0 0 M263.165 7.23694 L263.165 8.97883 Q262.375 8.54336 261.575 8.33068 Q260.785 8.10788 259.975 8.10788 Q258.162 8.10788 257.16 9.26239 Q256.157 10.4068 256.157 12.4829 Q256.157 14.5589 257.16 15.7135 Q258.162 16.8578 259.975 16.8578 Q260.785 16.8578 261.575 16.6452 Q262.375 16.4224 263.165 15.9869 L263.165 17.7085 Q262.386 18.0731 261.545 18.2554 Q260.715 18.4377 259.773 18.4377 Q257.211 18.4377 255.702 16.8275 Q254.193 15.2172 254.193 12.4829 Q254.193 9.70799 255.712 8.11801 Q257.241 6.52803 259.894 6.52803 Q260.755 6.52803 261.575 6.71032 Q262.396 6.88249 263.165 7.23694 Z" fill="#000000" fill-rule="evenodd" fill-opacity="1" /><path clip-path="url(#clip630)" d="M 0 0 M264.927 13.6678 L264.927 6.80147 L266.791 6.80147 L266.791 13.5969 Q266.791 15.2071 267.419 16.0173 Q268.047 16.8173 269.302 16.8173 Q270.811 16.8173 271.682 15.8552 Q272.563 14.8931 272.563 13.2323 L272.563 6.80147 L274.427 6.80147 L274.427 18.144 L272.563 18.144 L272.563 16.4021 Q271.885 17.4351 270.984 17.9415 Q270.092 18.4377 268.907 18.4377 Q266.953 18.4377 265.94 17.2224 Q264.927 16.0071 264.927 13.6678 M269.616 6.52803 L269.616 6.52803 Z" fill="#000000" fill-rule="evenodd" fill-opacity="1" /><path clip-path="url(#clip630)" d="M 0 0 M282.954 8.54336 Q282.64 8.36107 282.265 8.28005 Q281.901 8.1889 281.455 8.1889 Q279.875 8.1889 279.025 9.22188 Q278.184 10.2447 278.184 12.1689 L278.184 18.144 L276.311 18.144 L276.311 6.80147 L278.184 6.80147 L278.184 8.56361 Q278.771 7.53063 279.713 7.0344 Q280.655 6.52803 282.002 6.52803 Q282.194 6.52803 282.427 6.55841 Q282.66 6.57867 282.944 6.6293 L282.954 8.54336 Z" fill="#000000" fill-rule="evenodd" fill-opacity="1" /><path clip-path="url(#clip630)" d="M 0 0 M290.063 12.4424 Q287.805 12.4424 286.934 12.9588 Q286.063 13.4753 286.063 14.721 Q286.063 15.7135 286.711 16.3008 Q287.369 16.8781 288.494 16.8781 Q290.043 16.8781 290.975 15.7843 Q291.917 14.6805 291.917 12.8576 L291.917 12.4424 L290.063 12.4424 M293.78 11.6727 L293.78 18.144 L291.917 18.144 L291.917 16.4224 Q291.279 17.4553 290.327 17.9516 Q289.375 18.4377 287.997 18.4377 Q286.255 18.4377 285.223 17.4655 Q284.2 16.4831 284.2 14.8425 Q284.2 12.9285 285.476 11.9562 Q286.762 10.984 289.304 10.984 L291.917 10.984 L291.917 10.8017 Q291.917 9.51557 291.066 8.81679 Q290.225 8.10788 288.696 8.10788 Q287.724 8.10788 286.802 8.34081 Q285.881 8.57374 285.03 9.03959 L285.03 7.31796 Q286.053 6.923 287.015 6.73058 Q287.977 6.52803 288.889 6.52803 Q291.35 6.52803 292.565 7.80407 Q293.78 9.0801 293.78 11.6727 Z" fill="#000000" fill-rule="evenodd" fill-opacity="1" /><path clip-path="url(#clip630)" d="M 0 0 M303.897 7.23694 L303.897 8.97883 Q303.107 8.54336 302.307 8.33068 Q301.517 8.10788 300.707 8.10788 Q298.894 8.10788 297.892 9.26239 Q296.889 10.4068 296.889 12.4829 Q296.889 14.5589 297.892 15.7135 Q298.894 16.8578 300.707 16.8578 Q301.517 16.8578 302.307 16.6452 Q303.107 16.4224 303.897 15.9869 L303.897 17.7085 Q303.117 18.0731 302.277 18.2554 Q301.446 18.4377 300.505 18.4377 Q297.942 18.4377 296.433 16.8275 Q294.924 15.2172 294.924 12.4829 Q294.924 9.70799 296.444 8.11801 Q297.973 6.52803 300.626 6.52803 Q301.487 6.52803 302.307 6.71032 Q303.128 6.88249 303.897 7.23694 Z" fill="#000000" fill-rule="evenodd" fill-opacity="1" /><path clip-path="url(#clip630)" d="M 0 0 M310.571 19.1972 Q309.781 21.2227 309.032 21.8405 Q308.282 22.4582 307.027 22.4582 L305.538 22.4582 L305.538 20.8986 L306.632 20.8986 Q307.401 20.8986 307.827 20.534 Q308.252 20.1695 308.768 18.8124 L309.103 17.9617 L304.515 6.80147 L306.49 6.80147 L310.034 15.6729 L313.579 6.80147 L315.554 6.80147 L310.571 19.1972 Z" fill="#000000" fill-rule="evenodd" fill-opacity="1" /><path clip-path="url(#clip630)" d="M 0 0 M332.243 12.4829 Q332.243 10.427 331.393 9.26239 Q330.552 8.08763 329.074 8.08763 Q327.595 8.08763 326.744 9.26239 Q325.904 10.427 325.904 12.4829 Q325.904 14.5387 326.744 15.7135 Q327.595 16.8781 329.074 16.8781 Q330.552 16.8781 331.393 15.7135 Q332.243 14.5387 332.243 12.4829 M325.904 8.5231 Q326.491 7.51038 327.382 7.02427 Q328.284 6.52803 329.529 6.52803 Q331.595 6.52803 332.881 8.16865 Q334.178 9.80926 334.178 12.4829 Q334.178 15.1565 332.881 16.7971 Q331.595 18.4377 329.529 18.4377 Q328.284 18.4377 327.382 17.9516 Q326.491 17.4553 325.904 16.4426 L325.904 18.144 L324.03 18.144 L324.03 2.38598 L325.904 2.38598 L325.904 8.5231 Z" fill="#000000" fill-rule="evenodd" fill-opacity="1" /><path clip-path="url(#clip630)" d="M 0 0 M340.852 19.1972 Q340.062 21.2227 339.312 21.8405 Q338.563 22.4582 337.307 22.4582 L335.818 22.4582 L335.818 20.8986 L336.912 20.8986 Q337.682 20.8986 338.107 20.534 Q338.532 20.1695 339.049 18.8124 L339.383 17.9617 L334.795 6.80147 L336.77 6.80147 L340.315 15.6729 L343.859 6.80147 L345.834 6.80147 L340.852 19.1972 Z" fill="#000000" fill-rule="evenodd" fill-opacity="1" /><path clip-path="url(#clip630)" d="M 0 0 M364.083 12.0069 L364.083 12.9183 L355.516 12.9183 Q355.637 14.8425 356.67 15.8552 Q357.713 16.8578 359.567 16.8578 Q360.64 16.8578 361.643 16.5945 Q362.656 16.3312 363.648 15.8046 L363.648 17.5667 Q362.645 17.9921 361.592 18.2149 Q360.539 18.4377 359.455 18.4377 Q356.741 18.4377 355.151 16.8578 Q353.571 15.278 353.571 12.5841 Q353.571 9.79914 355.07 8.16865 Q356.579 6.52803 359.131 6.52803 Q361.42 6.52803 362.747 8.00661 Q364.083 9.47506 364.083 12.0069 M362.22 11.46 Q362.2 9.93079 361.359 9.01934 Q360.529 8.10788 359.152 8.10788 Q357.592 8.10788 356.65 8.98896 Q355.718 9.87003 355.577 11.4701 L362.22 11.46 Z" fill="#000000" fill-rule="evenodd" fill-opacity="1" /><path clip-path="url(#clip630)" d="M 0 0 M367.841 16.4426 L367.841 22.4582 L365.967 22.4582 L365.967 6.80147 L367.841 6.80147 L367.841 8.5231 Q368.428 7.51038 369.319 7.02427 Q370.221 6.52803 371.466 6.52803 Q373.532 6.52803 374.818 8.16865 Q376.115 9.80926 376.115 12.4829 Q376.115 15.1565 374.818 16.7971 Q373.532 18.4377 371.466 18.4377 Q370.221 18.4377 369.319 17.9516 Q368.428 17.4553 367.841 16.4426 M374.18 12.4829 Q374.18 10.427 373.33 9.26239 Q372.489 8.08763 371.011 8.08763 Q369.532 8.08763 368.681 9.26239 Q367.841 10.427 367.841 12.4829 Q367.841 14.5387 368.681 15.7135 Q369.532 16.8781 371.011 16.8781 Q372.489 16.8781 373.33 15.7135 Q374.18 14.5387 374.18 12.4829 Z" fill="#000000" fill-rule="evenodd" fill-opacity="1" /><path clip-path="url(#clip630)" d="M 0 0 M382.464 8.10788 Q380.966 8.10788 380.095 9.28265 Q379.224 10.4473 379.224 12.4829 Q379.224 14.5184 380.085 15.6932 Q380.956 16.8578 382.464 16.8578 Q383.953 16.8578 384.824 15.6831 Q385.695 14.5083 385.695 12.4829 Q385.695 10.4675 384.824 9.29277 Q383.953 8.10788 382.464 8.10788 M382.464 6.52803 Q384.895 6.52803 386.282 8.10788 Q387.67 9.68774 387.67 12.4829 Q387.67 15.2679 386.282 16.8578 Q384.895 18.4377 382.464 18.4377 Q380.024 18.4377 378.636 16.8578 Q377.259 15.2679 377.259 12.4829 Q377.259 9.68774 378.636 8.10788 Q380.024 6.52803 382.464 6.52803 Z" fill="#000000" fill-rule="evenodd" fill-opacity="1" /><path clip-path="url(#clip630)" d="M 0 0 M397.787 7.23694 L397.787 8.97883 Q396.997 8.54336 396.197 8.33068 Q395.407 8.10788 394.597 8.10788 Q392.784 8.10788 391.782 9.26239 Q390.779 10.4068 390.779 12.4829 Q390.779 14.5589 391.782 15.7135 Q392.784 16.8578 394.597 16.8578 Q395.407 16.8578 396.197 16.6452 Q396.997 16.4224 397.787 15.9869 L397.787 17.7085 Q397.007 18.0731 396.167 18.2554 Q395.336 18.4377 394.394 18.4377 Q391.832 18.4377 390.323 16.8275 Q388.814 15.2172 388.814 12.4829 Q388.814 9.70799 390.333 8.11801 Q391.863 6.52803 394.516 6.52803 Q395.377 6.52803 396.197 6.71032 Q397.017 6.88249 397.787 7.23694 Z" fill="#000000" fill-rule="evenodd" fill-opacity="1" /><path clip-path="url(#clip630)" d="M 0 0 M409.17 11.298 L409.17 18.144 L407.307 18.144 L407.307 11.3587 Q407.307 9.7485 406.679 8.94845 Q406.051 8.14839 404.795 8.14839 Q403.286 8.14839 402.415 9.11048 Q401.544 10.0726 401.544 11.7334 L401.544 18.144 L399.671 18.144 L399.671 2.38598 L401.544 2.38598 L401.544 8.56361 Q402.213 7.54076 403.114 7.0344 Q404.025 6.52803 405.21 6.52803 Q407.165 6.52803 408.167 7.7433 Q409.17 8.94845 409.17 11.298 Z" fill="#000000" fill-rule="evenodd" fill-opacity="1" /><polyline clip-path="url(#clip632)" style="stroke:#009af9; stroke-width:1; stroke-opacity:1; fill:none" points="
  65.6424,361.968 70.1722,276.226 74.7019,225.629 79.2316,189.878 83.7613,163.823 88.291,146.856 92.8207,137.161 97.3504,124.133 101.88,114.741 106.41,109.287 
  110.939,102.319 115.469,98.077 119.999,93.5324 124.529,85.655 129.058,83.2312 133.588,81.4134 138.118,76.8687 142.647,73.536 147.177,70.2033 151.707,69.5973 
  156.237,68.9914 160.766,67.4765 165.296,66.5676 169.826,65.0527 174.355,65.0527 178.885,64.7497 183.415,65.0527 187.944,65.0527 192.474,63.2349 197.004,61.417 
  201.534,60.2051 206.063,59.9021 210.593,58.9932 215.123,57.7813 219.652,56.8724 224.182,55.6605 228.712,53.2367 233.241,52.0248 237.771,51.7218 242.301,51.4188 
  246.831,49.601 251.36,51.1159 255.89,49.904 260.42,50.2069 264.949,49.601 269.479,48.6921 274.009,48.6921 278.538,47.1772 283.068,46.8742 287.598,46.5712 
  292.128,45.9653 296.657,45.9653 301.187,46.5712 305.717,46.8742 310.246,47.7831 314.776,46.8742 319.306,47.1772 323.836,47.7831 328.365,46.2683 332.895,46.2683 
  337.425,46.8742 341.954,46.2683 346.484,45.3593 351.014,45.0564 355.543,44.4504 360.073,44.1474 364.603,43.8445 369.133,44.1474 373.662,44.1474 378.192,44.1474 
  382.722,44.4504 387.251,44.4504 391.781,43.8445 396.311,44.1474 400.84,42.6326 405.37,41.7236 409.9,41.7236 414.43,41.1177 418.959,41.1177 423.489,41.1177 
  428.019,41.1177 432.548,41.1177 437.078,40.8147 441.608,40.8147 446.137,40.8147 450.667,40.8147 455.197,40.8147 459.727,40.8147 464.256,40.8147 468.786,40.8147 
  473.316,40.5117 477.845,40.5117 482.375,40.5117 486.905,40.5117 491.435,40.5117 495.964,40.5117 500.494,40.5117 505.024,40.5117 509.553,40.5117 514.083,40.5117 
  518.613,40.5117 523.142,40.5117 527.672,40.5117 532.202,40.5117 536.732,40.5117 541.261,40.5117 545.791,40.5117 550.321,40.5117 554.85,40.5117 559.38,40.5117 
  563.91,40.5117 568.439,40.5117 572.969,40.5117 
  "/>
<polyline clip-path="url(#clip632)" style="stroke:#e26f46; stroke-width:1; stroke-opacity:1; fill:none" points="
  473.316,712.356 473.316,-309.876 
  "/>
<path clip-path="url(#clip630)" d="
M434.696 87.5862 L570.263 87.5862 L570.263 42.2262 L434.696 42.2262  Z
  " fill="#ffffff" fill-rule="evenodd" fill-opacity="1"/>
<polyline clip-path="url(#clip630)" style="stroke:#000000; stroke-width:1; stroke-opacity:1; fill:none" points="
  434.696,87.5862 570.263,87.5862 570.263,42.2262 434.696,42.2262 434.696,87.5862 
  "/>
<polyline clip-path="url(#clip630)" style="stroke:#009af9; stroke-width:1; stroke-opacity:1; fill:none" points="
  440.671,57.3462 476.522,57.3462 
  "/>
<path clip-path="url(#clip630)" d="M 0 0 M486.456 54.1778 L484.87 58.4775 L488.047 58.4775 L486.456 54.1778 M485.796 53.0262 L487.121 53.0262 L490.414 61.6662 L489.199 61.6662 L488.412 59.4497 L484.517 59.4497 L483.73 61.6662 L482.498 61.6662 L485.796 53.0262 Z" fill="#000000" fill-rule="evenodd" fill-opacity="1" /><path clip-path="url(#clip630)" d="M 0 0 M495.987 55.4336 L495.987 56.4289 Q495.536 56.1801 495.078 56.0586 Q494.627 55.9312 494.164 55.9312 Q493.128 55.9312 492.555 56.591 Q491.982 57.2449 491.982 58.4312 Q491.982 59.6176 492.555 60.2773 Q493.128 60.9312 494.164 60.9312 Q494.627 60.9312 495.078 60.8097 Q495.536 60.6824 495.987 60.4335 L495.987 61.4173 Q495.541 61.6257 495.061 61.7298 Q494.587 61.834 494.048 61.834 Q492.584 61.834 491.722 60.9139 Q490.86 59.9937 490.86 58.4312 Q490.86 56.8456 491.728 55.937 Q492.602 55.0285 494.118 55.0285 Q494.61 55.0285 495.078 55.1326 Q495.547 55.231 495.987 55.4336 Z" fill="#000000" fill-rule="evenodd" fill-opacity="1" /><path clip-path="url(#clip630)" d="M 0 0 M501.768 55.4336 L501.768 56.4289 Q501.317 56.1801 500.86 56.0586 Q500.408 55.9312 499.945 55.9312 Q498.909 55.9312 498.337 56.591 Q497.764 57.2449 497.764 58.4312 Q497.764 59.6176 498.337 60.2773 Q498.909 60.9312 499.945 60.9312 Q500.408 60.9312 500.86 60.8097 Q501.317 60.6824 501.768 60.4335 L501.768 61.4173 Q501.323 61.6257 500.842 61.7298 Q500.368 61.834 499.83 61.834 Q498.365 61.834 497.503 60.9139 Q496.641 59.9937 496.641 58.4312 Q496.641 56.8456 497.509 55.937 Q498.383 55.0285 499.899 55.0285 Q500.391 55.0285 500.86 55.1326 Q501.328 55.231 501.768 55.4336 Z" fill="#000000" fill-rule="evenodd" fill-opacity="1" /><path clip-path="url(#clip630)" d="M 0 0 M502.775 59.1083 L502.775 55.1847 L503.84 55.1847 L503.84 59.0678 Q503.84 59.9879 504.199 60.4509 Q504.558 60.9081 505.275 60.9081 Q506.137 60.9081 506.635 60.3583 Q507.139 59.8085 507.139 58.8595 L507.139 55.1847 L508.203 55.1847 L508.203 61.6662 L507.139 61.6662 L507.139 60.6708 Q506.751 61.2611 506.236 61.5504 Q505.727 61.834 505.049 61.834 Q503.933 61.834 503.354 61.1395 Q502.775 60.4451 502.775 59.1083 M505.455 55.0285 L505.455 55.0285 Z" fill="#000000" fill-rule="evenodd" fill-opacity="1" /><path clip-path="url(#clip630)" d="M 0 0 M513.076 56.1801 Q512.897 56.0759 512.683 56.0296 Q512.474 55.9775 512.22 55.9775 Q511.317 55.9775 510.831 56.5678 Q510.35 57.1523 510.35 58.2518 L510.35 61.6662 L509.28 61.6662 L509.28 55.1847 L510.35 55.1847 L510.35 56.1917 Q510.686 55.6014 511.224 55.3178 Q511.762 55.0285 512.532 55.0285 Q512.642 55.0285 512.775 55.0458 Q512.908 55.0574 513.07 55.0863 L513.076 56.1801 Z" fill="#000000" fill-rule="evenodd" fill-opacity="1" /><path clip-path="url(#clip630)" d="M 0 0 M517.139 58.4081 Q515.848 58.4081 515.35 58.7032 Q514.853 58.9984 514.853 59.7102 Q514.853 60.2773 515.223 60.6129 Q515.599 60.9428 516.242 60.9428 Q517.127 60.9428 517.659 60.3178 Q518.198 59.687 518.198 58.6453 L518.198 58.4081 L517.139 58.4081 M519.262 57.9683 L519.262 61.6662 L518.198 61.6662 L518.198 60.6824 Q517.833 61.2726 517.289 61.5562 Q516.745 61.834 515.958 61.834 Q514.963 61.834 514.372 61.2784 Q513.788 60.7171 513.788 59.7796 Q513.788 58.6859 514.517 58.1303 Q515.252 57.5747 516.704 57.5747 L518.198 57.5747 L518.198 57.4706 Q518.198 56.7356 517.711 56.3363 Q517.231 55.9312 516.357 55.9312 Q515.802 55.9312 515.275 56.0643 Q514.748 56.1974 514.262 56.4636 L514.262 55.4799 Q514.847 55.2542 515.397 55.1442 Q515.946 55.0285 516.467 55.0285 Q517.873 55.0285 518.568 55.7576 Q519.262 56.4868 519.262 57.9683 Z" fill="#000000" fill-rule="evenodd" fill-opacity="1" /><path clip-path="url(#clip630)" d="M 0 0 M525.044 55.4336 L525.044 56.4289 Q524.592 56.1801 524.135 56.0586 Q523.684 55.9312 523.221 55.9312 Q522.185 55.9312 521.612 56.591 Q521.039 57.2449 521.039 58.4312 Q521.039 59.6176 521.612 60.2773 Q522.185 60.9312 523.221 60.9312 Q523.684 60.9312 524.135 60.8097 Q524.592 60.6824 525.044 60.4335 L525.044 61.4173 Q524.598 61.6257 524.118 61.7298 Q523.643 61.834 523.105 61.834 Q521.641 61.834 520.779 60.9139 Q519.916 59.9937 519.916 58.4312 Q519.916 56.8456 520.784 55.937 Q521.658 55.0285 523.174 55.0285 Q523.666 55.0285 524.135 55.1326 Q524.604 55.231 525.044 55.4336 Z" fill="#000000" fill-rule="evenodd" fill-opacity="1" /><path clip-path="url(#clip630)" d="M 0 0 M528.857 62.268 Q528.406 63.4254 527.978 63.7784 Q527.549 64.1314 526.832 64.1314 L525.981 64.1314 L525.981 63.2402 L526.606 63.2402 Q527.046 63.2402 527.289 63.0319 Q527.532 62.8236 527.827 62.0481 L528.018 61.562 L525.397 55.1847 L526.525 55.1847 L528.55 60.2541 L530.576 55.1847 L531.704 55.1847 L528.857 62.268 Z" fill="#000000" fill-rule="evenodd" fill-opacity="1" /><polyline clip-path="url(#clip630)" style="stroke:#e26f46; stroke-width:1; stroke-opacity:1; fill:none" points="
  440.671,72.4662 476.522,72.4662 
  "/>
<path clip-path="url(#clip630)" d="M 0 0 M483.666 72.66 L483.666 75.8255 L485.541 75.8255 Q486.485 75.8255 486.936 75.4378 Q487.393 75.0443 487.393 74.2399 Q487.393 73.4297 486.936 73.0478 Q486.485 72.66 485.541 72.66 L483.666 72.66 M483.666 69.1068 L483.666 71.711 L485.397 71.711 Q486.253 71.711 486.67 71.3927 Q487.092 71.0686 487.092 70.4089 Q487.092 69.755 486.67 69.4309 Q486.253 69.1068 485.397 69.1068 L483.666 69.1068 M482.498 68.1462 L485.484 68.1462 Q486.82 68.1462 487.544 68.7017 Q488.267 69.2573 488.267 70.2816 Q488.267 71.0744 487.897 71.5431 Q487.526 72.0119 486.809 72.1276 Q487.671 72.3128 488.146 72.9031 Q488.626 73.4876 488.626 74.3672 Q488.626 75.5246 487.839 76.1554 Q487.052 76.7862 485.599 76.7862 L482.498 76.7862 L482.498 68.1462 Z" fill="#000000" fill-rule="evenodd" fill-opacity="1" /><path clip-path="url(#clip630)" d="M 0 0 M495.287 73.2792 L495.287 73.8001 L490.391 73.8001 Q490.46 74.8996 491.051 75.4783 Q491.647 76.0512 492.706 76.0512 Q493.319 76.0512 493.892 75.9008 Q494.471 75.7503 495.038 75.4494 L495.038 76.4563 Q494.465 76.6994 493.863 76.8267 Q493.261 76.954 492.642 76.954 Q491.091 76.954 490.183 76.0512 Q489.28 75.1484 489.28 73.6091 Q489.28 72.0177 490.136 71.086 Q490.999 70.1485 492.457 70.1485 Q493.765 70.1485 494.523 70.9934 Q495.287 71.8325 495.287 73.2792 M494.222 72.9667 Q494.21 72.0929 493.73 71.5721 Q493.256 71.0512 492.469 71.0512 Q491.577 71.0512 491.039 71.5547 Q490.507 72.0582 490.426 72.9725 L494.222 72.9667 Z" fill="#000000" fill-rule="evenodd" fill-opacity="1" /><path clip-path="url(#clip630)" d="M 0 0 M500.536 70.4957 L500.536 71.5026 Q500.084 71.2711 499.598 71.1554 Q499.112 71.0397 498.591 71.0397 Q497.798 71.0397 497.399 71.2827 Q497.006 71.5258 497.006 72.0119 Q497.006 72.3823 497.289 72.5964 Q497.573 72.8047 498.429 72.9957 L498.794 73.0767 Q499.928 73.3197 500.402 73.7653 Q500.883 74.2052 500.883 74.998 Q500.883 75.9008 500.165 76.4274 Q499.453 76.954 498.203 76.954 Q497.683 76.954 497.115 76.8498 Q496.554 76.7514 495.929 76.5489 L495.929 75.4494 Q496.519 75.7561 497.092 75.9123 Q497.665 76.0628 498.227 76.0628 Q498.979 76.0628 499.384 75.8082 Q499.789 75.5477 499.789 75.079 Q499.789 74.645 499.494 74.4135 Q499.205 74.182 498.215 73.9679 L497.845 73.8811 Q496.855 73.6728 496.415 73.2445 Q495.975 72.8105 495.975 72.0582 Q495.975 71.1438 496.624 70.6461 Q497.272 70.1485 498.464 70.1485 Q499.054 70.1485 499.575 70.2353 Q500.096 70.3221 500.536 70.4957 Z" fill="#000000" fill-rule="evenodd" fill-opacity="1" /><path clip-path="url(#clip630)" d="M 0 0 M503.053 68.4644 L503.053 70.3047 L505.246 70.3047 L505.246 71.1323 L503.053 71.1323 L503.053 74.6508 Q503.053 75.4436 503.267 75.6693 Q503.487 75.895 504.152 75.895 L505.246 75.895 L505.246 76.7862 L504.152 76.7862 Q502.92 76.7862 502.451 76.329 Q501.982 75.866 501.982 74.6508 L501.982 71.1323 L501.201 71.1323 L501.201 70.3047 L501.982 70.3047 L501.982 68.4644 L503.053 68.4644 Z" fill="#000000" fill-rule="evenodd" fill-opacity="1" /><path clip-path="url(#clip630)" d="M 0 0 M513.064 69.2978 L511.479 73.5975 L514.656 73.5975 L513.064 69.2978 M512.405 68.1462 L513.73 68.1462 L517.023 76.7862 L515.808 76.7862 L515.02 74.5697 L511.126 74.5697 L510.339 76.7862 L509.106 76.7862 L512.405 68.1462 Z" fill="#000000" fill-rule="evenodd" fill-opacity="1" /><path clip-path="url(#clip630)" d="M 0 0 M522.596 70.5536 L522.596 71.5489 Q522.144 71.3001 521.687 71.1786 Q521.236 71.0512 520.773 71.0512 Q519.737 71.0512 519.164 71.711 Q518.591 72.3649 518.591 73.5512 Q518.591 74.7376 519.164 75.3973 Q519.737 76.0512 520.773 76.0512 Q521.236 76.0512 521.687 75.9297 Q522.144 75.8024 522.596 75.5535 L522.596 76.5373 Q522.15 76.7457 521.67 76.8498 Q521.195 76.954 520.657 76.954 Q519.193 76.954 518.331 76.0339 Q517.468 75.1137 517.468 73.5512 Q517.468 71.9656 518.336 71.057 Q519.21 70.1485 520.726 70.1485 Q521.218 70.1485 521.687 70.2526 Q522.156 70.351 522.596 70.5536 Z" fill="#000000" fill-rule="evenodd" fill-opacity="1" /><path clip-path="url(#clip630)" d="M 0 0 M528.377 70.5536 L528.377 71.5489 Q527.926 71.3001 527.468 71.1786 Q527.017 71.0512 526.554 71.0512 Q525.518 71.0512 524.945 71.711 Q524.372 72.3649 524.372 73.5512 Q524.372 74.7376 524.945 75.3973 Q525.518 76.0512 526.554 76.0512 Q527.017 76.0512 527.468 75.9297 Q527.926 75.8024 528.377 75.5535 L528.377 76.5373 Q527.931 76.7457 527.451 76.8498 Q526.976 76.954 526.438 76.954 Q524.974 76.954 524.112 76.0339 Q523.25 75.1137 523.25 73.5512 Q523.25 71.9656 524.118 71.057 Q524.991 70.1485 526.508 70.1485 Q527 70.1485 527.468 70.2526 Q527.937 70.351 528.377 70.5536 Z" fill="#000000" fill-rule="evenodd" fill-opacity="1" /><path clip-path="url(#clip630)" d="M 0 0 M529.384 74.2283 L529.384 70.3047 L530.449 70.3047 L530.449 74.1878 Q530.449 75.1079 530.807 75.5709 Q531.166 76.0281 531.884 76.0281 Q532.746 76.0281 533.244 75.4783 Q533.747 74.9285 533.747 73.9795 L533.747 70.3047 L534.812 70.3047 L534.812 76.7862 L533.747 76.7862 L533.747 75.7908 Q533.359 76.3811 532.844 76.6704 Q532.335 76.954 531.658 76.954 Q530.541 76.954 529.963 76.2595 Q529.384 75.5651 529.384 74.2283 M532.063 70.1485 L532.063 70.1485 Z" fill="#000000" fill-rule="evenodd" fill-opacity="1" /><path clip-path="url(#clip630)" d="M 0 0 M539.685 71.3001 Q539.505 71.1959 539.291 71.1496 Q539.083 71.0975 538.828 71.0975 Q537.925 71.0975 537.439 71.6878 Q536.959 72.2723 536.959 73.3718 L536.959 76.7862 L535.888 76.7862 L535.888 70.3047 L536.959 70.3047 L536.959 71.3117 Q537.295 70.7214 537.833 70.4378 Q538.371 70.1485 539.141 70.1485 Q539.251 70.1485 539.384 70.1658 Q539.517 70.1774 539.679 70.2063 L539.685 71.3001 Z" fill="#000000" fill-rule="evenodd" fill-opacity="1" /><path clip-path="url(#clip630)" d="M 0 0 M543.747 73.5281 Q542.457 73.5281 541.959 73.8232 Q541.461 74.1184 541.461 74.8302 Q541.461 75.3973 541.832 75.7329 Q542.208 76.0628 542.85 76.0628 Q543.736 76.0628 544.268 75.4378 Q544.806 74.807 544.806 73.7653 L544.806 73.5281 L543.747 73.5281 M545.871 73.0883 L545.871 76.7862 L544.806 76.7862 L544.806 75.8024 Q544.442 76.3926 543.898 76.6762 Q543.354 76.954 542.567 76.954 Q541.571 76.954 540.981 76.3984 Q540.396 75.8371 540.396 74.8996 Q540.396 73.8059 541.126 73.2503 Q541.861 72.6947 543.313 72.6947 L544.806 72.6947 L544.806 72.5906 Q544.806 71.8556 544.32 71.4563 Q543.84 71.0512 542.966 71.0512 Q542.41 71.0512 541.884 71.1843 Q541.357 71.3174 540.871 71.5836 L540.871 70.5999 Q541.456 70.3742 542.005 70.2642 Q542.555 70.1485 543.076 70.1485 Q544.482 70.1485 545.177 70.8776 Q545.871 71.6068 545.871 73.0883 Z" fill="#000000" fill-rule="evenodd" fill-opacity="1" /><path clip-path="url(#clip630)" d="M 0 0 M551.652 70.5536 L551.652 71.5489 Q551.201 71.3001 550.744 71.1786 Q550.292 71.0512 549.829 71.0512 Q548.793 71.0512 548.221 71.711 Q547.648 72.3649 547.648 73.5512 Q547.648 74.7376 548.221 75.3973 Q548.793 76.0512 549.829 76.0512 Q550.292 76.0512 550.744 75.9297 Q551.201 75.8024 551.652 75.5535 L551.652 76.5373 Q551.207 76.7457 550.726 76.8498 Q550.252 76.954 549.714 76.954 Q548.249 76.954 547.387 76.0339 Q546.525 75.1137 546.525 73.5512 Q546.525 71.9656 547.393 71.057 Q548.267 70.1485 549.783 70.1485 Q550.275 70.1485 550.744 70.2526 Q551.212 70.351 551.652 70.5536 Z" fill="#000000" fill-rule="evenodd" fill-opacity="1" /><path clip-path="url(#clip630)" d="M 0 0 M555.466 77.388 Q555.014 78.5454 554.586 78.8984 Q554.158 79.2514 553.44 79.2514 L552.59 79.2514 L552.59 78.3602 L553.215 78.3602 Q553.655 78.3602 553.898 78.1519 Q554.141 77.9436 554.436 77.1681 L554.627 76.682 L552.005 70.3047 L553.134 70.3047 L555.159 75.3741 L557.185 70.3047 L558.313 70.3047 L555.466 77.388 Z" fill="#000000" fill-rule="evenodd" fill-opacity="1" /></svg>
